<svg width="134" height="30" viewBox="0 0 134 30" fill="none" xmlns="http://www.w3.org/2000/svg">
<path d="M101.183 11.5901C101.292 11.2288 101.436 10.9037 101.472 10.576C101.545 10.1425 101.762 10.0702 102.159 10.0702C103.065 10.1063 103.968 10.0702 104.946 10.0702C104.765 11.3733 104.621 12.6403 104.44 13.9047C104.115 16.3303 103.79 18.7895 103.462 21.2151C103.209 22.9878 102.629 24.6522 101.183 25.8469C100.169 26.6804 98.9772 27.0778 97.7102 27.2223C95.504 27.4752 93.4396 27.0778 91.5585 25.8831C91.414 25.8108 91.3056 25.7024 91.125 25.5579C91.6308 24.7606 92.103 23.9658 92.5726 23.1684C93.8757 24.0019 95.1788 24.5438 96.6987 24.4716C98.2908 24.3993 99.2327 23.6742 99.6662 22.1543C99.8107 21.6125 99.883 21.068 99.9191 20.49C99.7746 20.6345 99.5939 20.8151 99.4494 20.9596C97.6044 22.7685 94.348 22.5879 92.792 20.6345C92.2501 19.9481 91.9585 19.1146 91.8501 18.245C91.5611 15.7833 92.0669 13.5048 93.7674 11.6236C95.1066 10.1399 96.8432 9.48963 98.8327 9.88702C99.8804 10.0702 100.497 10.5399 101.183 11.5901ZM100.678 15.1717C100.678 15.0272 100.642 14.8105 100.605 14.5937C100.353 12.821 98.7605 12.0236 97.2406 12.9655C96.8793 13.1822 96.5181 13.5073 96.2626 13.8712C95.504 14.9575 95.2485 16.1884 95.4653 17.5251C95.7543 19.1533 97.1658 19.8784 98.6495 19.1172C99.1553 18.8643 99.5914 18.3947 99.9165 17.9225C100.497 17.1251 100.642 16.1858 100.678 15.1717Z" fill="#2D5696"/>
<path d="M52.3335 5.72754C53.4199 11.4096 54.5036 17.0169 55.59 22.6629C54.2869 22.6629 53.0922 22.6629 51.7916 22.6629C51.611 21.5404 51.3942 20.3843 51.1775 19.2257C51.033 19.2257 50.8523 19.1896 50.7078 19.1896C49.0796 19.1896 47.4513 19.1896 45.8231 19.1896C45.4257 19.1896 45.2812 19.3341 45.1367 19.6592C44.7393 20.6733 44.2671 21.6849 43.8336 22.699C42.675 22.699 41.5164 22.699 40.3242 22.699C40.3965 22.5184 40.4326 22.3738 40.5048 22.2293C42.9304 16.875 45.3896 11.518 47.8152 6.12751C47.9597 5.8385 48.1042 5.73012 48.4293 5.73012C49.7299 5.72754 50.9968 5.72754 52.3335 5.72754ZM46.5456 16.2582C47.9932 16.2582 49.4047 16.2582 50.8162 16.2582C50.4188 13.9049 50.0189 11.6264 49.6215 9.30917C49.5854 9.30917 49.5492 9.30917 49.5131 9.30917C48.5351 11.6264 47.5571 13.9049 46.5456 16.2582Z" fill="#2D5696"/>
<path d="M115.623 11.6653C115.768 11.1956 115.84 10.7957 115.985 10.4344C116.021 10.2899 116.202 10.1093 116.31 10.1093C117.288 10.0731 118.299 10.1093 119.386 10.1093C118.844 14.3437 118.299 18.5034 117.758 22.7017C116.635 22.7017 115.587 22.7017 114.429 22.7017C114.429 22.196 114.429 21.6876 114.429 21.1096C114.284 21.2541 114.212 21.2902 114.14 21.3625C112.873 22.774 111.317 23.3159 109.472 22.8462C107.699 22.3766 106.793 21.0735 106.432 19.373C105.926 16.6584 106.36 14.127 108.096 11.9181C109.363 10.2899 111.1 9.5648 113.162 9.89251C114.14 10.037 114.898 10.5428 115.404 11.4124C115.479 11.4485 115.551 11.5208 115.623 11.6653ZM115.082 15.5359C115.082 15.3191 115.118 15.0663 115.082 14.8495C114.973 13.727 114.395 12.8961 113.562 12.6794C112.656 12.4626 111.933 12.7516 111.283 13.3658C110.052 14.5605 109.51 17.2751 110.197 18.8672C110.558 19.7368 111.247 20.1342 112.15 20.0981C113.128 20.0258 113.778 19.4478 114.248 18.6866C114.865 17.7447 115.118 16.6584 115.082 15.5359Z" fill="#2D5696"/>
<path d="M122.174 10.1054C123.297 10.1054 124.38 10.1054 125.467 10.1054C125.467 10.6111 125.467 11.1556 125.467 11.7336C125.647 11.553 125.756 11.4807 125.864 11.3723C127.203 9.92473 128.868 9.52734 130.749 9.96085C132.197 10.286 133.102 11.5168 133.064 13.1451C133.027 14.4482 132.847 15.7152 132.702 17.0183C132.486 18.8994 132.233 20.7806 131.98 22.6643C130.785 22.6643 129.626 22.6643 128.398 22.6643C128.543 21.4334 128.687 20.2748 128.868 19.0826C129.048 17.7434 129.229 16.368 129.41 15.0288C129.482 14.3063 129.446 13.5451 128.723 13.1477C127.965 12.7142 127.167 12.8948 126.481 13.4006C125.611 14.0508 125.142 14.9565 125.033 16.079C124.78 18.213 124.491 20.3496 124.2 22.5198C124.2 22.5559 124.164 22.6281 124.128 22.7004C122.969 22.7004 121.774 22.7004 120.582 22.7004C121.088 18.4633 121.63 14.3011 122.174 10.1054Z" fill="#2D5696"/>
<path d="M79.5129 18.8972C79.9103 19.5836 80.3102 20.2725 80.7437 20.9951C80.4909 21.2118 80.238 21.4647 79.9464 21.6453C78.0653 22.8401 75.9648 23.2374 73.7947 22.7678C71.9135 22.3704 70.6827 21.1757 70.2492 19.3307C69.5989 16.6522 70.0324 14.1569 71.8774 11.9842C73.5779 9.95858 76.437 9.19736 78.971 10.067C80.3102 10.5366 81.2134 11.4062 81.4327 12.8538C81.6495 14.2653 81.1076 15.3878 79.9851 16.2548C78.7904 17.1605 77.415 17.5941 75.9313 17.8469C75.1726 17.9553 74.3753 18.0276 73.614 18.0998C73.4695 19.1139 74.2643 20.0171 75.4229 20.1255C76.7622 20.27 77.993 19.8364 79.1129 19.1475C79.2239 19.1165 79.3323 19.0055 79.5129 18.8972ZM73.6502 15.7129C74.0475 15.6768 74.4836 15.6768 74.881 15.5684C75.6784 15.3517 76.5454 15.171 77.2705 14.8459C77.993 14.4846 78.2485 13.6873 77.9569 13.0009C77.704 12.4229 77.015 12.0952 76.2203 12.2423C74.8088 12.5287 73.6502 14.0486 73.6502 15.7129Z" fill="#2E5696"/>
<path d="M60.7301 22.6647C59.5353 22.6647 58.3767 22.6647 57.1484 22.6647C57.9071 16.8381 58.6683 11.0477 59.427 5.25977C60.6217 5.25977 61.7803 5.25977 63.0086 5.25977C62.2138 11.0477 61.4526 16.8381 60.7301 22.6647Z" fill="#2E5696"/>
<path d="M67.023 22.6647C65.8283 22.6647 64.6336 22.6647 63.4414 22.6647C64.2001 16.8381 64.9613 11.0477 65.7199 5.25977C66.9147 5.25977 68.0733 5.25977 69.3015 5.25977C68.5429 11.0477 67.7817 16.8381 67.023 22.6647Z" fill="#2D5696"/>
<path d="M85.9127 22.6981C84.8263 22.6981 83.7787 22.6981 82.6923 22.6981C82.6201 22.6981 82.5478 22.6981 82.3672 22.6981C82.9091 18.4637 83.4536 14.304 83.9954 10.1057C85.1179 10.1057 86.1656 10.1057 87.2881 10.1057C87.2881 10.6837 87.2881 11.2643 87.2881 11.8062C87.7216 11.3365 88.1215 10.8282 88.5912 10.4308C89.4608 9.70829 90.4362 9.59733 91.5225 9.88892C91.8477 9.9973 91.956 10.1418 91.8477 10.5031C91.5948 11.4449 91.378 12.4203 91.1251 13.4344C90.8723 13.3622 90.6194 13.2899 90.4026 13.2538C89.4608 13.1093 88.666 13.3622 88.0132 14.0511C87.1074 14.993 86.7462 16.149 86.6378 17.416C86.4572 19.0804 86.2404 20.7448 86.0236 22.4091C85.9849 22.5536 85.9488 22.5898 85.9127 22.6981Z" fill="#2D5696"/>
<path d="M12.9297 7.24872C12.9297 5.58435 14.2689 4.24511 15.9333 4.20898C17.5977 4.20898 19.0092 5.58435 18.973 7.24872C18.9369 8.91309 17.5977 10.2523 15.9333 10.2523C14.3051 10.2885 12.9297 8.91309 12.9297 7.24872Z" fill="#44AF2C"/>
<path d="M12.9297 23.2038C12.9297 21.5394 14.3051 20.2002 15.9694 20.2002C17.6338 20.2002 18.973 21.5756 18.973 23.2399C18.973 24.9043 17.5615 26.2797 15.8972 26.2797C14.2689 26.2435 12.9297 24.8682 12.9297 23.2038Z" fill="#44AF2C"/>
<path d="M15.4223 15.2819C15.4223 16.9463 14.0469 18.2855 12.3825 18.2855C10.7181 18.2855 9.37891 16.9102 9.37891 15.2458C9.37891 13.5814 10.7543 12.2061 12.4548 12.2061C14.1191 12.2422 15.4223 13.5814 15.4223 15.2819Z" fill="#44AF2C"/>
<path d="M31.8906 15.2458C31.8906 13.5814 33.266 12.2422 34.8942 12.2061C36.5586 12.2061 37.934 13.5453 37.934 15.2097C37.9701 16.874 36.5586 18.2855 34.8942 18.2494C33.266 18.2494 31.8906 16.9102 31.8906 15.2458Z" fill="#2E5696"/>
<path d="M28.3828 7.28457C28.3828 5.6202 29.6859 4.24484 31.3503 4.24484C33.0147 4.20871 34.39 5.58408 34.39 7.21232C34.39 8.91282 33.0869 10.2882 31.3864 10.2882C29.7582 10.2882 28.3828 8.94895 28.3828 7.28457Z" fill="#2E5696"/>
<path d="M34.4181 23.2399C34.4181 24.9043 33.0788 26.2435 31.4145 26.2797C29.7501 26.2797 28.3747 24.9043 28.4109 23.2038C28.4109 21.5394 29.7862 20.2002 31.4506 20.2002C33.0788 20.2002 34.4181 21.5756 34.4181 23.2399Z" fill="#2E5696"/>
<path d="M23.6032 0.515625C25.2676 0.515625 26.6068 1.89099 26.6068 3.55536C26.6068 5.21973 25.2315 6.55897 23.5671 6.55897C21.9027 6.55897 20.5273 5.18361 20.5273 3.51924C20.5635 1.85486 21.9388 0.515625 23.6032 0.515625Z" fill="#3E86CA"/>
<path d="M23.6029 29.975C21.9385 29.975 20.5271 28.5996 20.5632 26.9352C20.5632 25.2709 21.9747 23.9316 23.6029 23.9316C25.2673 23.9316 26.6065 25.307 26.6065 26.9714C26.6065 28.5996 25.2673 29.975 23.6029 29.975Z" fill="#3E86CA"/>
<path d="M28.7737 16.9088C27.868 16.9088 27.1094 16.1863 27.1094 15.2806C27.1094 14.3387 27.868 13.6162 28.8099 13.6162C29.7156 13.6162 30.4742 14.3387 30.4742 15.2445C30.4742 16.1502 29.7156 16.9088 28.7737 16.9088Z" fill="#4087CA"/>
<path d="M27.403 9.5621C27.403 10.4678 26.6056 11.2265 25.7025 11.2265C24.7967 11.1903 24.0742 10.4291 24.0742 9.52597C24.1103 8.62024 24.8329 7.8616 25.7386 7.89772C26.6443 7.8616 27.403 8.62282 27.403 9.5621Z" fill="#4087CA"/>
<path d="M25.7398 22.6266C24.798 22.6266 24.0393 21.868 24.0755 20.9261C24.1116 20.0204 24.8728 19.2979 25.7398 19.2979C26.6817 19.2979 27.4042 20.0565 27.4042 20.9983C27.4042 21.9015 26.6456 22.6266 25.7398 22.6266Z" fill="#4087CA"/>
<path d="M6.3063 13.5791C7.24815 13.5791 7.97067 14.3377 7.93454 15.2796C7.93454 16.1853 7.1759 16.9078 6.27017 16.9078C5.32832 16.9078 4.6058 16.1853 4.64192 15.2073C4.64192 14.2655 5.36444 13.5791 6.3063 13.5791Z" fill="#A3D235"/>
<path d="M11.9489 20.9622C11.9489 21.9041 11.2625 22.5905 10.3206 22.6266C9.37877 22.6266 8.65625 21.9041 8.65625 20.9622C8.65625 20.0204 9.41489 19.2979 10.3567 19.2979C11.2264 19.2979 11.9489 20.0565 11.9489 20.9622Z" fill="#A3D235"/>
<path d="M11.9489 9.52602C11.9489 10.4318 11.2264 11.1904 10.3206 11.1904C9.37877 11.1904 8.65625 10.4679 8.65625 9.52602C8.65625 8.6203 9.37877 7.89778 10.3206 7.89778C11.2264 7.86165 11.9489 8.58675 11.9489 9.52602Z" fill="#A3D235"/>
<path d="M6.27092 12.3866C5.69291 12.3866 5.14844 11.8447 5.14844 11.2641C5.14844 10.6835 5.6542 10.1416 6.27092 10.1416C6.88764 10.1416 7.42953 10.6835 7.39341 11.3002C7.39082 11.8808 6.84894 12.3866 6.27092 12.3866Z" fill="#C5D506"/>
<path d="M7.39341 19.226C7.39341 19.8401 6.88764 20.3485 6.27092 20.3485C5.69291 20.3485 5.14844 19.8427 5.14844 19.2621C5.14844 18.648 5.69033 18.1035 6.27092 18.1035C6.88764 18.1035 7.39341 18.6454 7.39341 19.226Z" fill="#C5D506"/>
<path d="M0.949219 15.2446C0.949219 14.6304 1.45498 14.1221 2.0717 14.1221C2.68842 14.1221 3.19419 14.6278 3.19419 15.2807C3.19419 15.8948 2.68842 16.367 2.0717 16.367C1.41886 16.367 0.949219 15.8587 0.949219 15.2446Z" fill="#C5D507"/>
<path d="M22.1889 11.9159C21.5748 11.9159 21.0664 11.4101 21.0664 10.8295C21.0664 10.2154 21.5722 9.70703 22.225 9.70703C22.8392 9.70703 23.3475 10.2128 23.3114 10.8295C23.2752 11.4101 22.7669 11.9159 22.1889 11.9159Z" fill="#81ADE2"/>
<path d="M26.1346 15.2455C26.1346 15.8597 25.6289 16.368 25.0483 16.368C24.4341 16.368 23.9258 15.8261 23.9258 15.2455C23.9258 14.6314 24.4677 14.0869 25.0844 14.0869C25.665 14.123 26.1346 14.6314 26.1346 15.2455Z" fill="#81ADE2"/>
<path d="M22.1889 20.7831C21.5748 20.7831 21.0664 20.2773 21.0664 19.6967C21.0664 19.0826 21.5722 18.5742 22.225 18.5742C22.8392 18.5742 23.3475 19.08 23.3114 19.6967C23.2752 20.3108 22.7669 20.7831 22.1889 20.7831Z" fill="#81ADE2"/>
</svg>
