<svg width="40" height="40" viewBox="0 0 40 40" fill="none" xmlns="http://www.w3.org/2000/svg">
<path d="M36.2189 29.2707C37.1004 27.4787 37.5398 25.5015 37.5001 23.5048C37.4605 21.5081 36.943 19.5499 35.991 17.7943C35.039 16.0387 33.6802 14.5367 32.0283 13.4142C30.3765 12.2917 28.4798 11.5813 26.497 11.3426C25.8394 9.80966 24.8816 8.42384 23.6802 7.26679C22.4787 6.10974 21.0578 5.20486 19.5012 4.60546C17.9446 4.00606 16.2838 3.72427 14.6166 3.77668C12.9494 3.8291 11.3095 4.21466 9.79364 4.91065C8.27776 5.60665 6.91651 6.599 5.79009 7.82923C4.66367 9.05947 3.79486 10.5027 3.23486 12.0739C2.67486 13.6451 2.43499 15.3125 2.52939 16.9779C2.62378 18.6432 3.05053 20.2728 3.78448 21.7707L2.58761 25.9613C2.48081 26.3362 2.47613 26.7329 2.57406 27.1102C2.67199 27.4875 2.86896 27.8318 3.14461 28.1075C3.42026 28.3831 3.76455 28.5801 4.14187 28.678C4.51919 28.7759 4.91583 28.7713 5.29073 28.6645L9.48136 27.4676C10.7459 28.0885 12.1061 28.4915 13.5048 28.6598C14.1715 30.2218 15.1495 31.6316 16.3792 32.8031C17.6088 33.9745 19.0643 34.8832 20.6568 35.4734C22.2493 36.0637 23.9454 36.3233 25.6415 36.2363C27.3376 36.1494 28.9982 35.7177 30.522 34.9676L34.7126 36.1645C35.0875 36.2713 35.4841 36.2759 35.8615 36.178C36.2388 36.0801 36.5831 35.8831 36.8587 35.6075C37.1344 35.3318 37.3314 34.9875 37.4293 34.6102C37.5272 34.2329 37.5225 33.8362 37.4157 33.4613L36.2189 29.2707ZM9.61573 24.8801C9.49956 24.8801 9.38392 24.8959 9.27198 24.927L5.14542 26.1067L6.32511 21.9801C6.41352 21.6657 6.37538 21.3292 6.21886 21.0426C5.06951 18.9325 4.71901 16.4789 5.2316 14.1314C5.7442 11.7839 7.08554 9.69966 9.00985 8.26071C10.9342 6.82175 13.3125 6.1244 15.7092 6.29644C18.1059 6.46848 20.3603 7.49839 22.0593 9.19744C23.7584 10.8965 24.7883 13.1509 24.9603 15.5476C25.1324 17.9442 24.435 20.3226 22.9961 22.2469C21.5571 24.1712 19.4729 25.5126 17.1254 26.0252C14.7779 26.5377 12.3243 26.1873 10.2142 25.0379C10.0312 24.9356 9.82534 24.8813 9.61573 24.8801ZM33.6782 29.4801L34.8579 33.6067L30.7314 32.427C30.417 32.3386 30.0805 32.3767 29.7939 32.5332C27.4896 33.7868 24.7854 34.0858 22.263 33.3658C19.7406 32.6457 17.6016 30.9643 16.3064 28.6832C18.018 28.505 19.6743 27.9749 21.1714 27.1263C22.6686 26.2776 23.9741 25.1287 25.0062 23.7517C26.0384 22.3747 26.7747 20.7992 27.1692 19.1241C27.5637 17.449 27.6077 15.7105 27.2985 14.0176C28.7964 14.3706 30.1926 15.0645 31.3784 16.0453C32.5641 17.0262 33.5076 18.2674 34.1352 19.6725C34.7628 21.0776 35.0577 22.6086 34.9969 24.1462C34.936 25.6839 34.5211 27.1868 33.7845 28.5379C33.6267 28.8258 33.5885 29.1643 33.6782 29.4801Z" fill="black"/>
</svg>
