<svg width="40" height="40" viewBox="0 0 40 40" fill="none" xmlns="http://www.w3.org/2000/svg">
<path d="M26.25 23.7498C26.25 24.0813 26.1183 24.3992 25.8839 24.6337C25.6495 24.8681 25.3315 24.9998 25 24.9998H15C14.6685 24.9998 14.3505 24.8681 14.1161 24.6337C13.8817 24.3992 13.75 24.0813 13.75 23.7498C13.75 23.4183 13.8817 23.1003 14.1161 22.8659C14.3505 22.6315 14.6685 22.4998 15 22.4998H25C25.3315 22.4998 25.6495 22.6315 25.8839 22.8659C26.1183 23.1003 26.25 23.4183 26.25 23.7498ZM25 17.4998H15C14.6685 17.4998 14.3505 17.6315 14.1161 17.8659C13.8817 18.1003 13.75 18.4183 13.75 18.7498C13.75 19.0813 13.8817 19.3992 14.1161 19.6337C14.3505 19.8681 14.6685 19.9998 15 19.9998H25C25.3315 19.9998 25.6495 19.8681 25.8839 19.6337C26.1183 19.3992 26.25 19.0813 26.25 18.7498C26.25 18.4183 26.1183 18.1003 25.8839 17.8659C25.6495 17.6315 25.3315 17.4998 25 17.4998ZM33.75 7.49977V33.7498C33.75 34.4128 33.4866 35.0487 33.0178 35.5175C32.5489 35.9864 31.913 36.2498 31.25 36.2498H8.75C8.08696 36.2498 7.45107 35.9864 6.98223 35.5175C6.51339 35.0487 6.25 34.4128 6.25 33.7498V7.49977C6.25 6.83673 6.51339 6.20085 6.98223 5.73201C7.45107 5.26317 8.08696 4.99977 8.75 4.99977H14.4156C15.118 4.21341 15.9785 3.58424 16.9408 3.15346C17.9032 2.72268 18.9456 2.5 20 2.5C21.0544 2.5 22.0968 2.72268 23.0592 3.15346C24.0215 3.58424 24.882 4.21341 25.5844 4.99977H31.25C31.913 4.99977 32.5489 5.26317 33.0178 5.73201C33.4866 6.20085 33.75 6.83673 33.75 7.49977ZM15 9.99977H25C25 8.67369 24.4732 7.40192 23.5355 6.46424C22.5979 5.52656 21.3261 4.99977 20 4.99977C18.6739 4.99977 17.4021 5.52656 16.4645 6.46424C15.5268 7.40192 15 8.67369 15 9.99977ZM31.25 7.49977H27.0703C27.3547 8.30261 27.5 9.14807 27.5 9.99977V11.2498C27.5 11.5813 27.3683 11.8992 27.1339 12.1337C26.8995 12.3681 26.5815 12.4998 26.25 12.4998H13.75C13.4185 12.4998 13.1005 12.3681 12.8661 12.1337C12.6317 11.8992 12.5 11.5813 12.5 11.2498V9.99977C12.5 9.14807 12.6453 8.30261 12.9297 7.49977H8.75V33.7498H31.25V7.49977Z" fill="black"/>
</svg>
