<svg width="40" height="40" viewBox="0 0 40 40" fill="none" xmlns="http://www.w3.org/2000/svg">
<path d="M35 10.0004C34.9995 9.06535 34.7369 8.14916 34.2418 7.35588C33.7468 6.56261 33.0393 5.92404 32.1995 5.51271C31.3598 5.10137 30.4216 4.93375 29.4913 5.02887C28.5611 5.124 27.6762 5.47806 26.9372 6.05086C26.1981 6.62365 25.6344 7.39221 25.3102 8.26927C24.986 9.14632 24.9142 10.0967 25.103 11.0125C25.2918 11.9283 25.7336 12.7728 26.3783 13.4501C27.023 14.1274 27.8446 14.6104 28.75 14.8442V16.2504C28.75 16.9135 28.4866 17.5493 28.0178 18.0182C27.5489 18.487 26.9131 18.7504 26.25 18.7504H15C14.1217 18.7493 13.2589 18.9818 12.5 19.4238V14.8442C13.6783 14.5399 14.7052 13.8164 15.3883 12.8092C16.0713 11.8019 16.3635 10.5802 16.2102 9.37291C16.0568 8.16564 15.4684 7.05575 14.5553 6.25126C13.6422 5.44677 12.467 5.00293 11.25 5.00293C10.033 5.00293 8.85785 5.44677 7.94472 6.25126C7.03159 7.05575 6.44321 8.16564 6.28986 9.37291C6.13652 10.5802 6.42874 11.8019 7.11176 12.8092C7.79478 13.8164 8.82169 14.5399 10 14.8442V25.1567C8.82169 25.4609 7.79478 26.1845 7.11176 27.1917C6.42874 28.1989 6.13652 29.4206 6.28986 30.6279C6.44321 31.8352 7.03159 32.9451 7.94472 33.7496C8.85785 34.5541 10.033 34.9979 11.25 34.9979C12.467 34.9979 13.6422 34.5541 14.5553 33.7496C15.4684 32.9451 16.0568 31.8352 16.2102 30.6279C16.3635 29.4206 16.0713 28.1989 15.3883 27.1917C14.7052 26.1845 13.6783 25.4609 12.5 25.1567V23.7504C12.5 23.0874 12.7634 22.4515 13.2322 21.9826C13.7011 21.5138 14.337 21.2504 15 21.2504H26.25C27.5761 21.2504 28.8479 20.7236 29.7855 19.7859C30.7232 18.8483 31.25 17.5765 31.25 16.2504V14.8442C32.3229 14.5655 33.2731 13.9388 33.9517 13.0623C34.6303 12.1858 34.999 11.1089 35 10.0004ZM8.75001 10.0004C8.75001 9.50596 8.89663 9.02261 9.17134 8.61149C9.44604 8.20036 9.83649 7.87993 10.2933 7.69071C10.7501 7.50149 11.2528 7.45199 11.7377 7.54845C12.2227 7.64491 12.6681 7.88301 13.0178 8.23264C13.3674 8.58228 13.6055 9.02773 13.702 9.51269C13.7984 9.99764 13.7489 10.5003 13.5597 10.9571C13.3705 11.4139 13.0501 11.8044 12.6389 12.0791C12.2278 12.3538 11.7445 12.5004 11.25 12.5004C10.587 12.5004 9.95109 12.237 9.48224 11.7682C9.0134 11.2993 8.75001 10.6635 8.75001 10.0004ZM13.75 30.0004C13.75 30.4949 13.6034 30.9782 13.3287 31.3893C13.054 31.8005 12.6635 32.1209 12.2067 32.3101C11.7499 32.4993 11.2472 32.5488 10.7623 32.4524C10.2773 32.3559 9.83188 32.1178 9.48224 31.7682C9.13261 31.4186 8.89451 30.9731 8.79805 30.4881C8.70159 30.0032 8.75109 29.5005 8.94031 29.0437C9.12953 28.5869 9.44996 28.1964 9.86109 27.9217C10.2722 27.647 10.7556 27.5004 11.25 27.5004C11.9131 27.5004 12.5489 27.7638 13.0178 28.2326C13.4866 28.7015 13.75 29.3374 13.75 30.0004ZM30 12.5004C29.5056 12.5004 29.0222 12.3538 28.6111 12.0791C28.2 11.8044 27.8795 11.4139 27.6903 10.9571C27.5011 10.5003 27.4516 9.99764 27.548 9.51269C27.6445 9.02773 27.8826 8.58228 28.2322 8.23264C28.5819 7.88301 29.0273 7.64491 29.5123 7.54845C29.9972 7.45199 30.4999 7.50149 30.9567 7.69071C31.4135 7.87993 31.804 8.20036 32.0787 8.61149C32.3534 9.02261 32.5 9.50596 32.5 10.0004C32.5 10.6635 32.2366 11.2993 31.7678 11.7682C31.2989 12.237 30.6631 12.5004 30 12.5004Z" fill="black"/>
</svg>
