<svg width="123" height="54" viewBox="0 0 123 54" fill="none" xmlns="http://www.w3.org/2000/svg">
<path d="M34.8789 39.0148L34.8908 39.0029L34.8789 39.0148Z" fill="white"/>
<path d="M23.2095 26.2742L43.3263 6.15737C39.931 2.38369 35.0129 0.00976562 29.5368 0.00976562C19.2939 0.00976562 10.9805 8.31376 10.9805 18.5661C10.9805 28.8184 19.2845 37.1224 29.5368 37.1224C33.7172 37.1224 37.576 35.7415 40.6781 33.4055C34.9088 33.3676 31.6459 34.7106 31.6459 34.7106L23.2189 26.2837L23.2095 26.2742Z" fill="white"/>
<path d="M75.1681 26.2754C75.1681 26.2754 69.8433 29.0654 62.173 29.7275C62.173 29.7275 53.8028 30.4463 44.4206 29.3397C42.3399 29.0938 40.2118 28.7533 38.1122 28.2993C38.1122 28.2993 28.9192 26.3226 28.0207 25.8876C28.0207 25.8876 36.703 27.5049 45.1772 28.1858C47.8916 28.4034 50.5871 28.5263 52.9705 28.4696C52.9705 28.4696 66.4101 28.9046 73.5508 24.6959L49.1684 0.285156L43.0587 6.39493L23.0742 26.3794L31.4539 34.759C31.4539 34.759 34.6979 33.4255 40.4294 33.4633C43.1722 33.4822 46.4729 33.8133 50.275 34.759C50.275 34.759 63.1188 38.022 63.6011 37.9747L75.2532 26.4361L75.1775 26.2754H75.1681Z" fill="white"/>
<path d="M66.117 0.114258L58.9102 7.34006L77.6367 26.1139L75.8303 28.0149C75.8303 28.0149 85.0138 27.8541 90.4332 24.4682L66.117 0.114258Z" fill="white"/>
<path d="M81.9675 0.170898L75.3281 6.81031L94.66 26.1422L93.0805 27.7027C93.0805 27.7027 100.382 27.6365 106.18 24.3641L81.9675 0.180351V0.170898Z" fill="white"/>
<path d="M91.1908 29.6128L80.9102 40.007C80.9102 40.007 87.228 40.5556 95.078 39.1558L108.12 26.1324L107.856 26.0283C107.856 26.0283 102.947 29.0738 91.1908 29.6128Z" fill="white"/>
<path d="M92.1284 26.1816L78.528 39.8293C78.528 39.8293 72.4371 39.6118 65.5234 38.2309L74.0166 29.804C74.0166 29.804 84.2973 30.0121 92.1284 26.1911V26.1816Z" fill="white"/>
<path d="M90.7585 41.3122C81.1021 42.239 70.6322 40.6501 70.6322 40.6501C69.7621 40.5555 64.0401 39.5057 64.0401 39.5057C62.7633 39.2882 56.9845 37.9735 56.9845 37.9735L53.6175 37.0561L50.9599 36.2617C48.4536 35.2497 45.2568 34.7673 45.2568 34.7673C42.5991 34.2566 39.4402 34.3039 39.4402 34.3039C25.017 35.4672 19.957 44.3765 19.957 44.3765C29.1122 38.3802 39.3646 38.9099 39.3646 38.9099C43.9043 38.9099 55.301 40.8676 55.301 40.8676C66.4235 43.1375 76.0232 43.1659 76.0232 43.1659C100.926 43.828 105.248 36.744 105.248 36.744C100.585 40.4515 90.7775 41.3122 90.7775 41.3122H90.7585Z" fill="white"/>
<path d="M4.937 48.7414C5.01266 48.7981 5.08832 48.8832 5.15453 48.9873C5.22073 49.0913 5.26802 49.2237 5.30585 49.375C5.34369 49.5264 5.3626 49.6966 5.3626 49.8952V50.614C5.3626 50.7653 5.34369 50.9072 5.30585 51.0207C5.26802 51.1342 5.23019 51.2382 5.1829 51.3139C5.23019 51.3801 5.26802 51.4652 5.30585 51.5787C5.34369 51.6922 5.3626 51.8246 5.3626 51.976V52.742C5.3626 52.9312 5.34369 53.1014 5.30585 53.2622C5.26802 53.4135 5.22073 53.546 5.15453 53.65C5.08832 53.754 5.02212 53.8391 4.937 53.8959C4.86134 53.9526 4.77622 53.981 4.6911 53.981H0V48.6562H4.6911C4.77622 48.6562 4.86134 48.6846 4.937 48.7414ZM0.775544 49.9047V50.737H4.42627C4.42627 50.737 4.50194 50.7181 4.53031 50.6802C4.55868 50.6424 4.56814 50.5573 4.56814 50.4249V50.2735C4.56814 50.0276 4.52085 49.9047 4.41682 49.9047H0.766084H0.775544ZM0.775544 51.8814V52.7326H4.43573C4.48302 52.7326 4.52085 52.7137 4.53977 52.6853C4.55869 52.6569 4.5776 52.5813 4.5776 52.4583V52.2691C4.5776 52.1367 4.55868 52.0422 4.53031 51.976C4.50194 51.9097 4.46411 51.8814 4.42627 51.8814H0.785H0.775544Z" fill="white"/>
<path d="M10.6576 48.6462C10.7427 48.6462 10.8278 48.6746 10.9035 48.7313C10.9792 48.7881 11.0548 48.8732 11.121 48.9772C11.1872 49.0812 11.2345 49.2137 11.2723 49.365C11.3102 49.5163 11.3291 49.6865 11.3291 49.8852V52.732C11.3291 52.9306 11.3102 53.1008 11.2723 53.2616C11.2345 53.4129 11.1872 53.5453 11.121 53.6494C11.0548 53.7534 10.9886 53.8385 10.9035 53.8953C10.8278 53.952 10.7427 53.9804 10.6576 53.9804H6.62854C6.54342 53.9804 6.4583 53.952 6.38264 53.8953C6.30697 53.8385 6.23131 53.7629 6.1651 53.6494C6.0989 53.5453 6.05161 53.4129 6.01378 53.2616C5.97594 53.1103 5.95703 52.9306 5.95703 52.732V49.8852C5.95703 49.6865 5.97594 49.5163 6.01378 49.3555C6.05161 49.2042 6.0989 49.0718 6.1651 48.9677C6.23131 48.8637 6.29751 48.7786 6.38264 48.7218C6.4583 48.6651 6.54342 48.6367 6.62854 48.6367H10.6576V48.6462ZM10.3928 52.609C10.3928 52.609 10.4684 52.5807 10.4968 52.5144C10.5252 52.4482 10.5346 52.3726 10.5346 52.2685V50.3675C10.5346 50.2635 10.5252 50.1784 10.4968 50.1216C10.4779 50.0554 10.4401 50.027 10.3928 50.027H6.87444C6.81769 50.027 6.78932 50.0554 6.77041 50.1216C6.75149 50.1878 6.74203 50.2635 6.74203 50.3675V52.2685C6.74203 52.3726 6.75149 52.4577 6.77986 52.5144C6.80824 52.5807 6.83661 52.609 6.87444 52.609H10.4022H10.3928Z" fill="white"/>
<path d="M16.4555 52.5151C16.4839 52.4489 16.4933 52.3732 16.4933 52.2691V48.6562H17.2783V52.742C17.2783 52.9407 17.2594 53.1109 17.2216 53.2717C17.1837 53.423 17.1364 53.5554 17.0702 53.6594C17.004 53.7635 16.9378 53.8486 16.8527 53.9054C16.777 53.9621 16.6919 53.9905 16.6068 53.9905H12.5778C12.4926 53.9905 12.4075 53.9621 12.3319 53.9054C12.2562 53.8486 12.1805 53.7729 12.1143 53.6594C12.0481 53.5554 12.0008 53.423 11.963 53.2717C11.9252 53.1204 11.9062 52.9407 11.9062 52.742V48.6562H12.6818V52.2691C12.6818 52.3732 12.6913 52.4583 12.7196 52.5151C12.748 52.5813 12.7764 52.6096 12.8142 52.6096H16.342C16.342 52.6096 16.4177 52.5813 16.446 52.5151H16.4555Z" fill="white"/>
<path d="M22.3218 52.6096C22.3218 52.6096 22.3975 52.5907 22.4259 52.5529C22.4542 52.5151 22.4637 52.4489 22.4637 52.3543V52.2597C22.4637 52.1651 22.4542 52.0989 22.4259 52.0705C22.407 52.0422 22.3691 52.0232 22.3218 52.0232H18.5387C18.4536 52.0232 18.3685 51.9949 18.2928 51.9381C18.2171 51.8814 18.1415 51.8057 18.0847 51.6922C18.028 51.5882 17.9807 51.4558 17.9428 51.3045C17.905 51.1531 17.8861 50.9734 17.8861 50.7748V49.9047C17.8861 49.7061 17.905 49.5358 17.9428 49.375C17.9807 49.2237 18.028 49.0913 18.0847 48.9873C18.1415 48.8832 18.2171 48.7981 18.2928 48.7414C18.3685 48.6846 18.4536 48.6562 18.5387 48.6562H23.2393V50.0276H18.7941C18.7941 50.0276 18.7184 50.0466 18.69 50.0749C18.6616 50.1033 18.6522 50.1695 18.6522 50.2641V50.3587C18.6522 50.4532 18.6616 50.5194 18.69 50.5573C18.7184 50.5951 18.7562 50.614 18.6427 50.614H22.4164C22.6529 50.614 22.738 50.6424 22.8231 50.6992C22.8988 50.7559 22.9744 50.841 23.0312 50.9545C23.0879 51.068 23.1352 51.2004 23.173 51.3517C23.2109 51.5031 23.2298 51.6733 23.2298 51.8719V52.742C23.2298 52.9407 23.2109 53.1109 23.173 53.2717C23.1352 53.423 23.0879 53.5554 23.0312 53.6594C22.9744 53.7635 22.8988 53.8486 22.8231 53.9054C22.738 53.9621 22.6623 53.9905 22.5677 53.9905H17.8672V52.6191H22.3029L22.3218 52.6096Z" fill="white"/>
<path d="M24.631 50.6118H28.4331V48.6445H29.2181V53.9693H28.4331V51.9926H24.631V53.9693H23.8555V48.6445H24.631V50.6118Z" fill="white"/>
<path d="M34.3862 53.9788V52.0021H30.5841V53.9788H29.8086V49.893C29.8086 49.6943 29.8275 49.5241 29.8653 49.3633C29.9032 49.212 29.9505 49.0796 30.0167 48.9755C30.0829 48.8715 30.1491 48.7864 30.2342 48.7296C30.3099 48.6729 30.395 48.6445 30.4801 48.6445H34.5091C34.5943 48.6445 34.6794 48.6729 34.7551 48.7296C34.8307 48.7864 34.9064 48.8715 34.9726 48.9755C35.0388 49.0796 35.0861 49.212 35.1239 49.3633C35.1617 49.5146 35.1807 49.6849 35.1807 49.8835V53.9693H34.3957L34.3862 53.9788ZM30.5841 50.5739H34.3862V50.2429C34.3862 50.1105 34.3767 50.0065 34.3484 49.9213C34.3295 49.8362 34.2916 49.7984 34.2443 49.7984H30.726C30.6693 49.7984 30.6409 49.8362 30.622 49.9213C30.6031 50.0065 30.5936 50.1105 30.5936 50.2429V50.5739H30.5841Z" fill="white"/>
<path d="M36.5451 50.6118H40.3471V48.6445H41.1321V53.9693H40.3471V51.9926H36.5451V53.9693H35.7695V48.6445H36.5451V50.6118Z" fill="white"/>
<path d="M46.6736 48.7414C46.7493 48.7981 46.825 48.8832 46.8912 48.9873C46.9574 49.0913 47.0047 49.2237 47.0425 49.375C47.0803 49.5264 47.0992 49.6966 47.0992 49.8952V50.7653C47.0992 51.0775 47.0614 51.3234 46.9857 51.5125C46.9101 51.7017 46.806 51.8435 46.6831 51.9287L47.1371 53.981H46.3426L45.8413 52.0043H42.5216V53.981H41.7461V48.6562H46.4372C46.5223 48.6562 46.6074 48.6846 46.6831 48.7414H46.6736ZM42.5122 49.8385V50.6235H46.1629C46.1629 50.6235 46.2386 50.6046 46.2669 50.5762C46.2953 50.5478 46.3048 50.4722 46.3048 50.3492V50.2073C46.3048 49.9709 46.2575 49.8479 46.1535 49.8479H42.5027L42.5122 49.8385Z" fill="white"/>
<path d="M47.6367 53.981V48.6562H48.4217V53.981H47.6367Z" fill="white"/>
<path d="M57.9017 48.6462V50.0176H53.4565C53.3997 50.0176 53.3714 50.0459 53.3524 50.1121C53.3335 50.1783 53.3241 50.254 53.3241 50.3581V52.2591C53.3241 52.3631 53.3335 52.4482 53.3619 52.505C53.3903 52.5712 53.4186 52.5996 53.4565 52.5996H56.9843C56.9843 52.5996 57.0599 52.5712 57.0883 52.505C57.1167 52.4388 57.1261 52.3631 57.1261 52.2591V50.9823H57.9111V52.732C57.9111 52.9306 57.8922 53.1008 57.8544 53.2616C57.8165 53.4129 57.7693 53.5453 57.7031 53.6494C57.6368 53.7534 57.5706 53.8385 57.4855 53.8953C57.4099 53.952 57.3247 53.9804 57.2396 53.9804H53.2106C53.1254 53.9804 53.0403 53.952 52.9647 53.8953C52.889 53.8385 52.8133 53.7629 52.7471 53.6494C52.6809 53.5453 52.6336 53.4129 52.5958 53.2616C52.558 53.1103 52.5391 52.9306 52.5391 52.732V49.8852C52.5391 49.6865 52.558 49.5163 52.5958 49.3555C52.6336 49.2042 52.6809 49.0718 52.7471 48.9677C52.8133 48.8637 52.8795 48.7786 52.9647 48.7218C53.0403 48.6651 53.1254 48.6367 53.2106 48.6367H57.9111L57.9017 48.6462Z" fill="white"/>
<path d="M63.4432 48.7414C63.5188 48.7981 63.5945 48.8832 63.6607 48.9873C63.7269 49.0913 63.7742 49.2237 63.812 49.375C63.8499 49.5264 63.8688 49.6966 63.8688 49.8952V50.7653C63.8688 51.0775 63.8309 51.3234 63.7553 51.5125C63.6796 51.7017 63.5756 51.8435 63.4526 51.9287L63.9066 53.981H63.1121L62.6109 52.0043H59.2912V53.981H58.5156V48.6562H63.2067C63.2918 48.6562 63.377 48.6846 63.4526 48.7414H63.4432ZM59.2817 49.8479V50.614H62.9324C62.9324 50.614 63.0081 50.5951 63.0365 50.5667C63.0649 50.5384 63.0743 50.4627 63.0743 50.3492V50.2073C63.0743 49.9709 63.027 49.8574 62.923 49.8574H59.2723L59.2817 49.8479Z" fill="white"/>
<path d="M69.1576 48.6462C69.2427 48.6462 69.3278 48.6746 69.4035 48.7313C69.4791 48.7881 69.5548 48.8732 69.621 48.9772C69.6872 49.0812 69.7345 49.2137 69.7723 49.365C69.8102 49.5163 69.8291 49.6865 69.8291 49.8852V52.732C69.8291 52.9306 69.8102 53.1008 69.7723 53.2616C69.7345 53.4129 69.6872 53.5453 69.621 53.6494C69.5548 53.7534 69.4886 53.8385 69.4035 53.8953C69.3184 53.952 69.2427 53.9804 69.1576 53.9804H65.1285C65.0434 53.9804 64.9583 53.952 64.8826 53.8953C64.807 53.8385 64.7313 53.7629 64.6651 53.6494C64.5989 53.5453 64.5516 53.4129 64.5138 53.2616C64.4759 53.1103 64.457 52.9306 64.457 52.732V49.8852C64.457 49.6865 64.4759 49.5163 64.5138 49.3555C64.5516 49.1947 64.5989 49.0718 64.6651 48.9677C64.7313 48.8637 64.7975 48.7786 64.8826 48.7218C64.9678 48.6651 65.0434 48.6367 65.1285 48.6367H69.1576V48.6462ZM68.9022 52.609C68.9022 52.609 68.9779 52.5807 69.0063 52.5144C69.0346 52.4482 69.0441 52.3726 69.0441 52.2685V50.3675C69.0441 50.2635 69.0346 50.1784 69.0063 50.1216C68.9873 50.0554 68.9495 50.027 68.9022 50.027H65.3839C65.3271 50.027 65.2988 50.0554 65.2799 50.1216C65.2609 50.1878 65.2515 50.2635 65.2515 50.3675V52.2685C65.2515 52.3726 65.2609 52.4577 65.2893 52.5144C65.3177 52.5807 65.3461 52.609 65.3839 52.609H68.9117H68.9022Z" fill="white"/>
<path d="M74.9633 52.5151C74.9917 52.4489 75.0011 52.3732 75.0011 52.2691V48.6562H75.7861V52.742C75.7861 52.9407 75.7672 53.1109 75.7294 53.2717C75.6915 53.423 75.6443 53.5554 75.5781 53.6594C75.5118 53.7635 75.4456 53.8486 75.3605 53.9054C75.2754 53.9621 75.1997 53.9905 75.1146 53.9905H71.0856C71.0004 53.9905 70.9153 53.9621 70.8397 53.9054C70.764 53.8486 70.6883 53.7729 70.6221 53.6594C70.5559 53.5554 70.5086 53.423 70.4708 53.2717C70.433 53.1204 70.4141 52.9407 70.4141 52.742V48.6562H71.1896V52.2691C71.1896 52.3732 71.1991 52.4583 71.2274 52.5151C71.2558 52.5813 71.2842 52.6096 71.322 52.6096H74.8498C74.8498 52.6096 74.9255 52.5813 74.9538 52.5151H74.9633Z" fill="white"/>
<path d="M81.3276 48.7397C81.4033 48.7965 81.479 48.8816 81.5452 48.9856C81.6114 49.0897 81.6587 49.2221 81.6965 49.3734C81.7343 49.5247 81.7532 49.695 81.7532 49.8936V50.7637C81.7532 50.9623 81.7343 51.1326 81.6965 51.2933C81.6587 51.4447 81.6114 51.5771 81.5452 51.6811C81.479 51.7852 81.4128 51.8703 81.3276 51.927C81.2425 51.9838 81.1668 52.0122 81.0817 52.0122H77.1662V53.9888H76.3906V48.6641H81.0817C81.1668 48.6641 81.252 48.6924 81.3276 48.7492V48.7397ZM77.1662 49.8463V50.6124H80.8169C80.8169 50.6124 80.8831 50.5935 80.9209 50.5651C80.9588 50.5367 80.9682 50.4611 80.9682 50.3476V50.1868C80.9682 49.9598 80.9209 49.8463 80.8169 49.8463H77.1662Z" fill="white"/>
<path d="M88.4821 53.981V50.0276H86.808C86.7513 50.0276 86.7135 50.056 86.6945 50.1222C86.6756 50.1884 86.6662 50.2641 86.6662 50.3681V53.981H85.8906V49.9141C85.8906 49.7155 85.9095 49.5358 85.9474 49.3845C85.9852 49.2237 86.0325 49.0913 86.0987 48.9873C86.1649 48.8832 86.2311 48.7981 86.3162 48.7414C86.3919 48.6846 86.477 48.6562 86.5716 48.6562H91.2249C91.31 48.6562 91.3951 48.6846 91.4708 48.7508C91.5464 48.817 91.6221 48.9021 91.6883 49.0062C91.7545 49.1102 91.8018 49.2521 91.8396 49.4034C91.8774 49.5547 91.8964 49.725 91.8964 49.9236V53.9905H91.1114V50.3776C91.1114 50.2735 91.1019 50.1884 91.0735 50.1317C91.0452 50.0655 91.0168 50.0371 90.9695 50.0371H89.286V53.9905H88.501L88.4821 53.981Z" fill="white"/>
<path d="M93.256 52.0043V52.6096H97.8431V53.981H92.4805V48.6562H97.8431V50.0276H93.256V50.6235H97.8431V52.0043H93.256Z" fill="white"/>
<path d="M103.129 48.6445C103.214 48.6445 103.299 48.6729 103.375 48.7296C103.45 48.7864 103.526 48.8715 103.592 48.9755C103.658 49.0796 103.706 49.212 103.743 49.3633C103.781 49.5146 103.8 49.6849 103.8 49.8835V52.7303C103.8 52.9289 103.781 53.0992 103.743 53.26C103.706 53.4113 103.658 53.5437 103.592 53.6477C103.526 53.7518 103.46 53.8369 103.375 53.8936C103.289 53.9504 103.214 53.9788 103.129 53.9788H98.4375V48.654H103.129V48.6445ZM99.213 50.0254V52.6074H102.864C102.864 52.6074 102.939 52.579 102.968 52.5128C102.996 52.4466 103.006 52.3709 103.006 52.2669V50.3659C103.006 50.2618 102.996 50.1767 102.968 50.12C102.949 50.0537 102.911 50.0254 102.864 50.0254H99.2036H99.213Z" fill="white"/>
<path d="M104.34 53.981V48.6562H105.125V53.981H104.34Z" fill="white"/>
<path d="M111.071 52.609V53.9804H106.371C106.286 53.9804 106.2 53.952 106.125 53.8953C106.049 53.8385 105.973 53.7629 105.907 53.6494C105.841 53.5453 105.794 53.4129 105.756 53.2616C105.718 53.1103 105.699 52.9306 105.699 52.732V49.8852C105.699 49.6865 105.718 49.5163 105.756 49.3555C105.794 49.1947 105.841 49.0718 105.907 48.9677C105.973 48.8637 106.04 48.7786 106.125 48.7218C106.21 48.6651 106.286 48.6367 106.371 48.6367H111.071V50.0081H106.626C106.569 50.0081 106.541 50.0365 106.522 50.1027C106.503 50.1689 106.494 50.2446 106.494 50.3486V52.2496C106.494 52.3537 106.503 52.4388 106.532 52.4955C106.56 52.5617 106.588 52.5901 106.626 52.5901H111.081L111.071 52.609Z" fill="white"/>
<path d="M116.246 53.9788V52.0021H112.444V53.9788H111.668V49.893C111.668 49.6943 111.687 49.5241 111.725 49.3633C111.763 49.2025 111.81 49.0796 111.876 48.9755C111.942 48.8715 112.008 48.7864 112.094 48.7296C112.179 48.6729 112.254 48.6445 112.339 48.6445H116.369C116.454 48.6445 116.539 48.6729 116.614 48.7296C116.69 48.7864 116.766 48.8715 116.832 48.9755C116.898 49.0796 116.945 49.212 116.983 49.3633C117.021 49.5146 117.04 49.6849 117.04 49.8835V53.9693H116.255L116.246 53.9788ZM112.444 50.6118H116.246V50.2902C116.246 50.1578 116.236 50.0537 116.208 49.9686C116.189 49.893 116.151 49.8457 116.104 49.8457H112.585C112.529 49.8457 112.5 49.8835 112.481 49.9686C112.462 50.0537 112.453 50.1578 112.453 50.2902V50.6118H112.444Z" fill="white"/>
<path d="M118.412 52.6096H122.999V53.981H117.637V48.6562H118.412V52.6096Z" fill="white"/>
</svg>
