<svg width="144" height="26" viewBox="0 0 144 26" fill="none" xmlns="http://www.w3.org/2000/svg">
<g clip-path="url(#clip0_14884_3123)">
<path d="M0.75 18.3653C0.75 22.6908 3.75131 25.6038 7.98846 25.6038H26.7908V19.866H9.31257V0.798828H0.75V18.3653ZM113.211 0.798828V6.53663H124.245V25.6921H132.808V6.53663H143.754V0.798828H113.211ZM82.1386 0.798828V25.6921H109.503V19.9543H90.7011V15.8937H108.886V10.5972H90.7011V6.53663H109.503V0.798828C109.415 0.798828 82.1386 0.798828 82.1386 0.798828ZM69.5154 0.798828V17.4826L55.7447 0.798828H45.5049V25.6921H52.4785V8.92003L66.2493 25.6038H76.489V0.798828H69.5154ZM31.2928 25.6921H39.8553V0.798828H31.2928V25.6921Z" fill="black"/>
</g>
<defs>
<clipPath id="clip0_14884_3123">
<rect width="143.004" height="24.8932" fill="white" transform="translate(0.75 0.798828)"/>
</clipPath>
</defs>
</svg>
