<svg width="40" height="40" viewBox="0 0 40 40" fill="none" xmlns="http://www.w3.org/2000/svg">
<path d="M20 3.75C16.7861 3.75 13.6443 4.70305 10.972 6.48862C8.29969 8.27419 6.21689 10.8121 4.98696 13.7814C3.75704 16.7507 3.43524 20.018 4.06225 23.1702C4.68926 26.3224 6.23692 29.2179 8.50952 31.4905C10.7821 33.7631 13.6776 35.3107 16.8298 35.9378C19.982 36.5648 23.2493 36.243 26.2186 35.013C29.1879 33.7831 31.7258 31.7003 33.5114 29.028C35.297 26.3557 36.25 23.2139 36.25 20C36.2455 15.6916 34.5319 11.561 31.4855 8.51454C28.439 5.46806 24.3084 3.75455 20 3.75ZM20 27.5C18.5166 27.5 17.0666 27.0601 15.8332 26.236C14.5999 25.4119 13.6386 24.2406 13.0709 22.8701C12.5033 21.4997 12.3547 19.9917 12.6441 18.5368C12.9335 17.082 13.6478 15.7456 14.6967 14.6967C15.7456 13.6478 17.082 12.9335 18.5368 12.6441C19.9917 12.3547 21.4997 12.5032 22.8701 13.0709C24.2406 13.6386 25.4119 14.5999 26.236 15.8332C27.0601 17.0666 27.5 18.5166 27.5 20C27.4979 21.9885 26.7071 23.8949 25.301 25.301C23.895 26.7071 21.9885 27.4979 20 27.5ZM26.1266 12.1047C24.7138 11.0004 23.0289 10.2986 21.25 10.0734V6.30781C24.024 6.5577 26.6557 7.64789 28.7938 9.43281L26.1266 12.1047ZM18.75 10.0812C16.9711 10.3064 15.2862 11.0083 13.8734 12.1125L11.2063 9.4375C13.3443 7.65258 15.976 6.56239 18.75 6.3125V10.0812ZM12.1047 13.8734C11.0004 15.2862 10.2986 16.9711 10.0734 18.75H6.30782C6.55771 15.976 7.6479 13.3443 9.43282 11.2063L12.1047 13.8734ZM10.0813 21.25C10.3064 23.0289 11.0083 24.7138 12.1125 26.1266L9.43751 28.7938C7.65258 26.6557 6.56239 24.024 6.31251 21.25H10.0813ZM13.8734 27.8953C15.287 28.9968 16.9719 29.6959 18.75 29.9187V33.6922C15.976 33.4423 13.3443 32.3521 11.2063 30.5672L13.8734 27.8953ZM21.25 29.9187C23.0281 29.6959 24.713 28.9968 26.1266 27.8953L28.7938 30.5625C26.6557 32.3474 24.024 33.4376 21.25 33.6875V29.9187ZM27.8953 26.1266C28.9968 24.713 29.6959 23.0281 29.9188 21.25H33.6922C33.4423 24.024 32.3521 26.6557 30.5672 28.7938L27.8953 26.1266ZM29.9188 18.75C29.6959 16.9719 28.9968 15.287 27.8953 13.8734L30.5625 11.2063C32.3474 13.3443 33.4376 15.976 33.6875 18.75H29.9188Z" fill="black"/>
</svg>
