<svg width="40" height="40" viewBox="0 0 40 40" fill="none" xmlns="http://www.w3.org/2000/svg">
<path d="M12.4989 28.1251C12.4989 28.496 12.3889 28.8585 12.1829 29.1668C11.9769 29.4752 11.684 29.7155 11.3414 29.8574C10.9988 29.9993 10.6218 30.0364 10.2581 29.9641C9.89438 29.8917 9.56029 29.7132 9.29806 29.4509C9.03584 29.1887 8.85726 28.8546 8.78491 28.4909C8.71257 28.1272 8.7497 27.7502 8.89161 27.4076C9.03353 27.065 9.27385 26.7721 9.58219 26.5661C9.89054 26.3601 10.253 26.2501 10.6239 26.2501C11.1212 26.2501 11.5981 26.4477 11.9497 26.7993C12.3013 27.1509 12.4989 27.6278 12.4989 28.1251ZM36.2489 24.4048V32.5001C36.2489 33.1632 35.9855 33.799 35.5167 34.2679C35.0478 34.7367 34.4119 35.0001 33.7489 35.0001H10.6239C10.2081 35.0004 9.79299 34.9648 9.38326 34.8939C7.59581 34.5678 6.01013 33.5473 4.97279 32.0556C3.93546 30.5638 3.53082 28.7221 3.84732 26.9329L7.75358 4.56887C7.8091 4.24572 7.92788 3.93671 8.10311 3.65958C8.27834 3.38244 8.50657 3.14263 8.7747 2.95391C9.04283 2.76519 9.34559 2.63127 9.6656 2.55983C9.98561 2.48839 10.3166 2.48085 10.6395 2.53762L19.1926 4.06262C19.8434 4.17991 20.4213 4.55026 20.7996 5.09261C21.178 5.63495 21.326 6.30511 21.2114 6.95638L19.3239 17.7376L29.9192 13.9064C30.5403 13.682 31.2249 13.7126 31.8236 13.9912C32.4223 14.2699 32.8863 14.7742 33.1145 15.3939L36.0926 23.5454C36.1883 23.8222 36.241 24.1121 36.2489 24.4048ZM14.8426 28.8861L18.7489 6.522L10.227 5.00012L6.32076 27.3595C6.11682 28.4968 6.37105 29.6686 7.02795 30.6191C7.68485 31.5696 8.69108 32.2216 9.82701 32.4329C10.3831 32.5327 10.9534 32.5209 11.5049 32.3983C12.0564 32.2757 12.578 32.0448 13.0395 31.7189C13.5128 31.3897 13.9159 30.9698 14.2254 30.4835C14.535 29.9972 14.7448 29.4542 14.8426 28.8861ZM16.9958 30.4689L33.7489 24.3923L30.7676 16.2501L18.827 20.5782L17.2989 29.3157C17.231 29.7081 17.1295 30.0939 16.9958 30.4689ZM33.7489 27.0501L18.7083 32.5001H33.7489V27.0501Z" fill="black"/>
</svg>
